<mxfile host="app.diagrams.net" modified="2023-11-06T02:31:17.512Z" agent="Mozilla/5.0 (Windows NT 10.0; Win64; x64; rv:109.0) Gecko/20100101 Firefox/116.0" etag="pNukh_uc_hNOjDAcjEDK" version="22.0.8" type="github">
  <diagram id="C5RBs43oDa-KdzZeNtuy" name="Page-1">
    <mxGraphModel dx="880" dy="463" grid="1" gridSize="10" guides="1" tooltips="1" connect="1" arrows="1" fold="1" page="1" pageScale="1" pageWidth="827" pageHeight="1169" math="0" shadow="0">
      <root>
        <mxCell id="WIyWlLk6GJQsqaUBKTNV-0" />
        <mxCell id="WIyWlLk6GJQsqaUBKTNV-1" parent="WIyWlLk6GJQsqaUBKTNV-0" />
        <mxCell id="XTmqGXkn8c-iNSpMAydH-3" style="edgeStyle=orthogonalEdgeStyle;rounded=0;orthogonalLoop=1;jettySize=auto;html=1;" edge="1" parent="WIyWlLk6GJQsqaUBKTNV-1" source="XTmqGXkn8c-iNSpMAydH-0" target="XTmqGXkn8c-iNSpMAydH-2">
          <mxGeometry relative="1" as="geometry" />
        </mxCell>
        <mxCell id="XTmqGXkn8c-iNSpMAydH-0" value="Start" style="ellipse;whiteSpace=wrap;html=1;" vertex="1" parent="WIyWlLk6GJQsqaUBKTNV-1">
          <mxGeometry x="340" y="20" width="120" height="70" as="geometry" />
        </mxCell>
        <mxCell id="XTmqGXkn8c-iNSpMAydH-2" value="&lt;div&gt;a,b,result&lt;/div&gt;&lt;div&gt;&lt;br&gt;&lt;/div&gt;" style="shape=parallelogram;perimeter=parallelogramPerimeter;whiteSpace=wrap;html=1;fixedSize=1;" vertex="1" parent="WIyWlLk6GJQsqaUBKTNV-1">
          <mxGeometry x="340" y="150" width="120" height="60" as="geometry" />
        </mxCell>
        <mxCell id="XTmqGXkn8c-iNSpMAydH-8" style="edgeStyle=orthogonalEdgeStyle;rounded=0;orthogonalLoop=1;jettySize=auto;html=1;" edge="1" parent="WIyWlLk6GJQsqaUBKTNV-1" source="XTmqGXkn8c-iNSpMAydH-6" target="XTmqGXkn8c-iNSpMAydH-7">
          <mxGeometry relative="1" as="geometry" />
        </mxCell>
        <mxCell id="XTmqGXkn8c-iNSpMAydH-6" value="&#xa;for i=0,i++&#xa;&#xa;" style="shape=parallelogram;perimeter=parallelogramPerimeter;whiteSpace=wrap;html=1;fixedSize=1;" vertex="1" parent="WIyWlLk6GJQsqaUBKTNV-1">
          <mxGeometry x="310" y="270" width="140" height="70" as="geometry" />
        </mxCell>
        <mxCell id="XTmqGXkn8c-iNSpMAydH-10" style="edgeStyle=orthogonalEdgeStyle;rounded=0;orthogonalLoop=1;jettySize=auto;html=1;entryX=0.5;entryY=0;entryDx=0;entryDy=0;" edge="1" parent="WIyWlLk6GJQsqaUBKTNV-1" source="XTmqGXkn8c-iNSpMAydH-7" target="XTmqGXkn8c-iNSpMAydH-9">
          <mxGeometry relative="1" as="geometry" />
        </mxCell>
        <mxCell id="XTmqGXkn8c-iNSpMAydH-7" value="(i%a==0)&amp;amp;&amp;amp;(i%b==0)" style="rhombus;whiteSpace=wrap;html=1;" vertex="1" parent="WIyWlLk6GJQsqaUBKTNV-1">
          <mxGeometry x="250" y="400" width="280" height="100" as="geometry" />
        </mxCell>
        <mxCell id="XTmqGXkn8c-iNSpMAydH-12" style="edgeStyle=orthogonalEdgeStyle;rounded=0;orthogonalLoop=1;jettySize=auto;html=1;entryX=0.5;entryY=0;entryDx=0;entryDy=0;" edge="1" parent="WIyWlLk6GJQsqaUBKTNV-1" source="XTmqGXkn8c-iNSpMAydH-9" target="XTmqGXkn8c-iNSpMAydH-11">
          <mxGeometry relative="1" as="geometry" />
        </mxCell>
        <mxCell id="XTmqGXkn8c-iNSpMAydH-9" value="result==i" style="shape=parallelogram;perimeter=parallelogramPerimeter;whiteSpace=wrap;html=1;fixedSize=1;" vertex="1" parent="WIyWlLk6GJQsqaUBKTNV-1">
          <mxGeometry x="330" y="555" width="120" height="60" as="geometry" />
        </mxCell>
        <mxCell id="XTmqGXkn8c-iNSpMAydH-11" value="printf result" style="rounded=0;whiteSpace=wrap;html=1;" vertex="1" parent="WIyWlLk6GJQsqaUBKTNV-1">
          <mxGeometry x="320" y="680" width="120" height="60" as="geometry" />
        </mxCell>
        <mxCell id="XTmqGXkn8c-iNSpMAydH-13" style="edgeStyle=orthogonalEdgeStyle;rounded=0;orthogonalLoop=1;jettySize=auto;html=1;entryX=0.593;entryY=0.014;entryDx=0;entryDy=0;entryPerimeter=0;" edge="1" parent="WIyWlLk6GJQsqaUBKTNV-1" source="XTmqGXkn8c-iNSpMAydH-2" target="XTmqGXkn8c-iNSpMAydH-6">
          <mxGeometry relative="1" as="geometry" />
        </mxCell>
      </root>
    </mxGraphModel>
  </diagram>
</mxfile>
